<svg version="1.1" id="Layer_1" xmlns="http://www.w3.org/2000/svg" xmlns:xlink="http://www.w3.org/1999/xlink" x="0px" y="0px"
	 width="100%" viewBox="0 0 1043 1043" enable-background="new 0 0 1043 1043" xml:space="preserve">
<path fill="#000000" opacity="0.000000" stroke="none" 
	d="
M659.000000,1044.000000 
	C439.359528,1044.000000 220.219055,1044.000000 1.039288,1044.000000 
	C1.039288,696.401062 1.039288,348.802155 1.039288,1.101611 
	C348.557343,1.101611 696.114746,1.101611 1043.836060,1.101611 
	C1043.836060,348.666595 1043.836060,696.333313 1043.836060,1044.000000 
	C915.801697,1044.000000 787.650818,1044.000000 659.000000,1044.000000 
M675.880310,678.987122 
	C679.323669,679.678406 679.021179,677.426147 679.020630,675.169189 
	C678.996765,575.401123 679.004578,475.633087 678.976440,375.865021 
	C678.975647,373.099152 678.624573,370.333374 678.402100,367.055847 
	C675.059021,366.432434 671.221802,365.117523 667.377014,365.095123 
	C637.730713,364.922363 608.083069,365.000000 578.435791,365.000000 
	C576.995667,365.000000 575.555542,365.000000 573.974609,365.000000 
	C574.055603,366.686188 574.111084,367.843262 574.012695,369.926392 
	C574.008484,398.028839 574.016113,426.131317 573.997192,454.233765 
	C573.970642,493.808075 573.924438,533.382385 573.129944,573.330261 
	C571.880310,573.553528 570.630981,573.970337 569.381042,573.971741 
	C537.560120,574.007568 505.739166,574.002686 473.918213,573.985718 
	C472.986389,573.985229 472.054688,573.777466 471.000000,573.651733 
	C471.000000,571.538635 471.000000,569.719360 471.000000,567.900024 
	C471.000000,502.258881 470.945831,436.617584 471.109436,370.976837 
	C471.121674,366.064545 469.680359,364.779205 464.922241,364.894135 
	C452.101379,365.203766 439.268097,365.000000 426.439758,365.000000 
	C407.613739,365.000000 388.787720,365.006989 369.961700,364.992279 
	C367.202789,364.990143 364.272217,364.678864 365.012756,369.926392 
	C365.008514,470.849640 365.041687,571.772949 364.889099,672.695923 
	C364.881500,677.721130 366.137329,679.121887 371.243591,679.114014 
	C470.834320,678.960388 570.425354,679.000793 670.016296,678.992981 
	C671.677429,678.992859 673.338562,678.888855 675.880310,678.987122 
M341.500000,835.000000 
	C419.257721,835.000000 497.015442,835.000000 574.707520,835.000000 
	C574.707520,799.688416 574.707520,764.952148 574.707520,729.814819 
	C487.681396,729.814819 400.947083,729.814819 313.817505,729.814819 
	C313.817505,556.015503 313.817505,382.618927 313.817505,209.295013 
	C278.683319,209.295013 243.947052,209.295013 209.288300,209.295013 
	C209.288300,417.984802 209.288300,626.379456 209.288300,835.000000 
	C253.217484,835.000000 296.858734,835.000000 341.500000,835.000000 
M730.000000,484.500000 
	C730.000000,601.255859 730.000000,718.011658 730.000000,834.710083 
	C765.306458,834.710083 800.042664,834.710083 834.716858,834.710083 
	C834.716858,626.025452 834.716858,417.630859 834.716858,209.282349 
	C713.034851,209.282349 591.636230,209.282349 470.287537,209.282349 
	C470.287537,244.301682 470.287537,279.037903 470.287537,314.175293 
	C556.975342,314.175293 643.376343,314.175293 730.000000,314.175293 
	C730.000000,370.885376 730.000000,427.192688 730.000000,484.500000 
z"/>
<path fill="#FF0000" opacity="1.000000" stroke="none" 
	d="
M341.000000,835.000000 
	C296.858734,835.000000 253.217484,835.000000 209.288300,835.000000 
	C209.288300,626.379456 209.288300,417.984802 209.288300,209.295013 
	C243.947052,209.295013 278.683319,209.295013 313.817505,209.295013 
	C313.817505,382.618927 313.817505,556.015503 313.817505,729.814819 
	C400.947083,729.814819 487.681396,729.814819 574.707520,729.814819 
	C574.707520,764.952148 574.707520,799.688416 574.707520,835.000000 
	C497.015442,835.000000 419.257721,835.000000 341.000000,835.000000 
z"/>
<path fill="#00FF00" opacity="1.000000" stroke="none" 
	d="
M730.000000,484.000000 
	C730.000000,427.192688 730.000000,370.885376 730.000000,314.175293 
	C643.376343,314.175293 556.975342,314.175293 470.287537,314.175293 
	C470.287537,279.037903 470.287537,244.301682 470.287537,209.282349 
	C591.636230,209.282349 713.034851,209.282349 834.716858,209.282349 
	C834.716858,417.630859 834.716858,626.025452 834.716858,834.710083 
	C800.042664,834.710083 765.306458,834.710083 730.000000,834.710083 
	C730.000000,718.011658 730.000000,601.255859 730.000000,484.000000 
z"/>
<path fill="#0000FF" opacity="1.000000" stroke="none" 
	d="
M573.886597,572.956665 
	C573.924438,533.382385 573.970642,493.808075 573.997192,454.233765 
	C574.016113,426.131317 574.008484,398.028839 574.547729,369.463196 
	C605.908264,369.000000 636.733826,368.999115 667.559326,369.000671 
	C674.995056,369.001038 674.999268,369.004700 674.999329,376.410095 
	C675.000183,477.217865 674.999756,578.025635 674.999695,678.833374 
	C673.338562,678.888855 671.677429,678.992859 670.016296,678.992981 
	C570.425354,679.000793 470.834320,678.960388 371.243591,679.114014 
	C366.137329,679.121887 364.881500,677.721130 364.889099,672.695923 
	C365.041687,571.772949 365.008514,470.849640 365.547791,369.463196 
	C397.221039,369.000000 428.359283,368.999237 459.497498,369.000610 
	C466.994415,369.000946 466.999115,369.004272 466.999268,376.339417 
	C467.000519,441.446594 467.052460,506.553894 466.894562,571.660706 
	C466.882690,576.558411 467.892609,578.179565 473.155762,578.134277 
	C504.624664,577.863281 536.097107,578.001160 567.568359,577.996033 
	C568.899170,577.995789 570.351196,578.268494 571.534424,577.834900 
	C573.692017,577.044006 576.144714,576.031921 573.886597,572.956665 
z"/>

</svg>